<?xml version="1.0" ?>
<!-- Uploaded to: SVG Repo, www.svgrepo.com, Generator: SVG Repo Mixer Tools -->
<svg width="800px" height="800px" viewBox="0 0 512 512" id="Layer_1" version="1.1" xml:space="preserve" xmlns="http://www.w3.org/2000/svg" xmlns:xlink="http://www.w3.org/1999/xlink">
<style type="text/css">
	.st0{fill:#6040EC;}
	.st1{fill:#0BDC49;}
</style>
<g>
<path class="st1" d="M109.4,66h218.7c17.6,0,32.4,12,36.7,28.2h24.5C384.6,64.6,358.9,42,328.1,42H109.4c-34.2,0-62,27.8-62,62   v230.5c0,31.2,23.2,57.1,53.2,61.4v-24.4c-16.7-4-29.2-19.1-29.2-37V104C71.4,83.1,88.4,66,109.4,66z"/>
<path class="st0" d="M408,115.8c-1.8-0.2-224.1-0.2-224.1-0.2c-34.2,0-62,27.8-62,62c0,0,0.1,234,0.2,235.8   c2.7,31.7,29.4,56.7,61.8,56.7h218.7c34.2,0,62-27.8,62-62V177.5C464.6,145.2,439.7,118.5,408,115.8z M440.6,408   c0,20.9-17,38-38,38H183.9c-21,0-38-17.1-38-38V177.5c0-21,17-38,38-38h218.7c21,0,38,17,38,38V408z"/>
</g>
</svg>